# xmcd
#
# Track frame offsets: 
#        150
#        21650
#        41385
#        54282
#        75205
#        91700
#        113790
#        124715
#        138927
#        160490
#
# Disc length: 2290 seconds
#
# Revision: 0
# Processed by: cddbd v1.5.2PL0 Copyright (c) Steve Scherf et al.
# Submitted via: ExactAudioCopy v0.99pb5
#
DISCID=7108f00a
DTITLE=Various Artist - AT&T Wireless Celebrates The Blues
DYEAR=2000
DGENRE=Blues
TTITLE0=Too Much of Everything - The Fabulous Thunderbirds, featuring 
TTITLE0=Kim Wilson
TTITLE1=Cold  Blooded Woman - Crescent City Gold
TTITLE2=Mr. Pitiful - Taj Mahal
TTITLE3=Corrinne - Joy Askew
TTITLE4=Heartbeats Accelerating - Kate and Anna McGarrigle
TTITLE5=Coming Up For Air - Patty Larkin
TTITLE6=Flannery's Georgia - Pierce Pettis
TTITLE7=What A Wonderful World - Jimmy Witherspoon
TTITLE8=All You Want - Eliza Gilkyson
TTITLE9=Treasures of Love - Dan Zanes
EXTD=
EXTT0=
EXTT1=
EXTT2=
EXTT3=
EXTT4=
EXTT5=
EXTT6=
EXTT7=
EXTT8=
EXTT9=
PLAYORDER=
